<?xml version="1.0" encoding="UTF-8" standalone="no"?>
<!DOCTYPE svg PUBLIC "-//W3C//DTD SVG 1.1//EN"
 "http://www.w3.org/Graphics/SVG/1.1/DTD/svg11.dtd">
<!-- Generated by graphviz version 2.43.0 (0)
 -->
<!-- Title: rag_architecture Pages: 1 -->
<svg width="214pt" height="475pt"
 viewBox="0.00 0.00 214.48 474.96" xmlns="http://www.w3.org/2000/svg" xmlns:xlink="http://www.w3.org/1999/xlink">
<g id="graph0" class="graph" transform="scale(1 1) rotate(0) translate(4 470.96)">
<title>rag_architecture</title>
<polygon fill="white" stroke="transparent" points="-4,4 -4,-470.96 210.48,-470.96 210.48,4 -4,4"/>
<!-- UQ -->
<g id="node1" class="node">
<title>UQ</title>
<ellipse fill="none" stroke="black" cx="103.24" cy="-448.96" rx="61.99" ry="18"/>
<text text-anchor="middle" x="103.24" y="-445.26" font-family="Times,serif" font-size="14.00">User Question</text>
</g>
<!-- SR -->
<g id="node2" class="node">
<title>SR</title>
<ellipse fill="none" stroke="black" cx="103.24" cy="-368.09" rx="103.48" ry="26.74"/>
<text text-anchor="middle" x="103.24" y="-371.89" font-family="Times,serif" font-size="14.00">Semantic Retriever</text>
<text text-anchor="middle" x="103.24" y="-356.89" font-family="Times,serif" font-size="14.00">(MiniLM Embeddings)</text>
</g>
<!-- UQ&#45;&gt;SR -->
<g id="edge1" class="edge">
<title>UQ&#45;&gt;SR</title>
<path fill="none" stroke="black" d="M103.24,-430.85C103.24,-423.36 103.24,-414.27 103.24,-405.39"/>
<polygon fill="black" stroke="black" points="106.74,-405.17 103.24,-395.17 99.74,-405.17 106.74,-405.17"/>
</g>
<!-- DB -->
<g id="node3" class="node">
<title>DB</title>
<ellipse fill="none" stroke="black" cx="103.24" cy="-278.35" rx="101.65" ry="26.74"/>
<text text-anchor="middle" x="103.24" y="-282.15" font-family="Times,serif" font-size="14.00">FAISS Vector Database</text>
<text text-anchor="middle" x="103.24" y="-267.15" font-family="Times,serif" font-size="14.00">(Top&#45;k Chunks)</text>
</g>
<!-- SR&#45;&gt;DB -->
<g id="edge2" class="edge">
<title>SR&#45;&gt;DB</title>
<path fill="none" stroke="black" d="M103.24,-340.77C103.24,-332.8 103.24,-323.91 103.24,-315.42"/>
<polygon fill="black" stroke="black" points="106.74,-315.35 103.24,-305.35 99.74,-315.35 106.74,-315.35"/>
</g>
<!-- CC -->
<g id="node4" class="node">
<title>CC</title>
<ellipse fill="none" stroke="black" cx="103.24" cy="-188.61" rx="89.61" ry="26.74"/>
<text text-anchor="middle" x="103.24" y="-192.41" font-family="Times,serif" font-size="14.00">Context Constructor</text>
<text text-anchor="middle" x="103.24" y="-177.41" font-family="Times,serif" font-size="14.00">(Token&#45;limited)</text>
</g>
<!-- DB&#45;&gt;CC -->
<g id="edge3" class="edge">
<title>DB&#45;&gt;CC</title>
<path fill="none" stroke="black" d="M103.24,-251.03C103.24,-243.06 103.24,-234.17 103.24,-225.68"/>
<polygon fill="black" stroke="black" points="106.74,-225.61 103.24,-215.61 99.74,-225.61 106.74,-225.61"/>
</g>
<!-- LLM -->
<g id="node5" class="node">
<title>LLM</title>
<ellipse fill="none" stroke="black" cx="103.24" cy="-98.87" rx="72.25" ry="26.74"/>
<text text-anchor="middle" x="103.24" y="-102.67" font-family="Times,serif" font-size="14.00">FLAN&#45;T5&#45;Base</text>
<text text-anchor="middle" x="103.24" y="-87.67" font-family="Times,serif" font-size="14.00">Strict Decoding</text>
</g>
<!-- CC&#45;&gt;LLM -->
<g id="edge4" class="edge">
<title>CC&#45;&gt;LLM</title>
<path fill="none" stroke="black" d="M103.24,-161.29C103.24,-153.32 103.24,-144.43 103.24,-135.94"/>
<polygon fill="black" stroke="black" points="106.74,-135.87 103.24,-125.87 99.74,-135.87 106.74,-135.87"/>
</g>
<!-- GA -->
<g id="node6" class="node">
<title>GA</title>
<ellipse fill="none" stroke="black" cx="103.24" cy="-18" rx="75.29" ry="18"/>
<text text-anchor="middle" x="103.24" y="-14.3" font-family="Times,serif" font-size="14.00">Grounded Answer</text>
</g>
<!-- LLM&#45;&gt;GA -->
<g id="edge5" class="edge">
<title>LLM&#45;&gt;GA</title>
<path fill="none" stroke="black" d="M103.24,-71.61C103.24,-63.51 103.24,-54.57 103.24,-46.39"/>
<polygon fill="black" stroke="black" points="106.74,-46.22 103.24,-36.22 99.74,-46.22 106.74,-46.22"/>
</g>
</g>
</svg>
